<svg id="Icons" height="512" viewBox="0 0 74 74" width="512" xmlns="http://www.w3.org/2000/svg"><path d="m43 23.99h-2.97a1 1 0 0 1 0-2h2.97a1 1 0 0 1 0 2z"/><path d="m70 72h-66a2 2 0 0 1 -2-2v-47.01a1 1 0 0 1 1-1h20.13a1 1 0 0 1 0 2h-19.13v46.01h66v-46.01h-20a1 1 0 0 1 0-2h21a1 1 0 0 1 1 1v47.01a2 2 0 0 1 -2 2z"/><path d="m33.03 23.99h-2.9a1 1 0 0 1 0-2h2.9a1 1 0 0 1 0 2z"/><path d="m43 23.99h-2.97a1 1 0 0 1 0-2h2.97a1 1 0 0 1 0 2z"/><path d="m23.13 23.99h-20.13a1 1 0 0 1 -1-1v-13a2 2 0 0 1 2-2h10.5a1 1 0 0 1 0 2h-10.5v12h19.13a1 1 0 0 1 0 2z"/><path d="m33.03 23.99h-2.9a1 1 0 0 1 0-2h2.9a1 1 0 0 1 0 2z"/><path d="m71 23.99h-21a1 1 0 0 1 0-2h20v-12h-10.5a1 1 0 0 1 0-2h10.5a2 2 0 0 1 2 2v13a1 1 0 0 1 -1 1z"/><path d="m53 9.99h-32a1 1 0 0 1 0-2h32a1 1 0 0 1 0 2z"/><path d="m58.771 15.988h-5.042a1.73 1.73 0 0 1 -1.729-1.729v-10.542a1.731 1.731 0 0 1 1.729-1.729h5.042a1.731 1.731 0 0 1 1.729 1.729v10.542a1.73 1.73 0 0 1 -1.729 1.729zm-4.771-2h4.5v-10h-4.5z"/><path d="m20.271 15.988h-5.042a1.73 1.73 0 0 1 -1.729-1.729v-10.542a1.731 1.731 0 0 1 1.729-1.729h5.042a1.731 1.731 0 0 1 1.729 1.729v10.542a1.73 1.73 0 0 1 -1.729 1.729zm-4.771-2h4.5v-10h-4.5z"/><path d="m61.653 38.328h-5.306a1.683 1.683 0 0 1 -1.68-1.681v-5.306a1.682 1.682 0 0 1 1.68-1.68h5.306a1.682 1.682 0 0 1 1.68 1.68v5.306a1.683 1.683 0 0 1 -1.68 1.681zm-4.986-2h4.666v-4.667h-4.666z"/><path d="m46.986 38.328h-5.306a1.683 1.683 0 0 1 -1.68-1.681v-5.306a1.682 1.682 0 0 1 1.68-1.68h5.306a1.683 1.683 0 0 1 1.681 1.68v5.306a1.683 1.683 0 0 1 -1.681 1.681zm-4.986-2h4.667v-4.667h-4.667z"/><path d="m32.32 38.328h-5.306a1.683 1.683 0 0 1 -1.681-1.681v-5.306a1.683 1.683 0 0 1 1.681-1.68h5.306a1.682 1.682 0 0 1 1.68 1.68v5.306a1.683 1.683 0 0 1 -1.68 1.681zm-4.987-2h4.667v-4.667h-4.667z"/><path d="m61.653 51.328h-5.306a1.683 1.683 0 0 1 -1.68-1.681v-5.306a1.682 1.682 0 0 1 1.68-1.68h5.306a1.682 1.682 0 0 1 1.68 1.68v5.306a1.683 1.683 0 0 1 -1.68 1.681zm-4.986-2h4.666v-4.667h-4.666z"/><path d="m46.986 51.328h-5.306a1.683 1.683 0 0 1 -1.68-1.681v-5.306a1.682 1.682 0 0 1 1.68-1.68h5.306a1.683 1.683 0 0 1 1.681 1.68v5.306a1.683 1.683 0 0 1 -1.681 1.681zm-4.986-2h4.667v-4.667h-4.667z"/><path d="m32.32 51.328h-5.306a1.683 1.683 0 0 1 -1.681-1.681v-5.306a1.683 1.683 0 0 1 1.681-1.68h5.306a1.682 1.682 0 0 1 1.68 1.68v5.306a1.683 1.683 0 0 1 -1.68 1.681zm-4.987-2h4.667v-4.667h-4.667z"/><path d="m17.653 51.328h-5.306a1.683 1.683 0 0 1 -1.68-1.681v-5.306a1.682 1.682 0 0 1 1.68-1.68h5.306a1.682 1.682 0 0 1 1.68 1.68v5.306a1.683 1.683 0 0 1 -1.68 1.681zm-4.986-2h4.666v-4.667h-4.666z"/><path d="m46.986 64.328h-5.306a1.683 1.683 0 0 1 -1.68-1.681v-5.306a1.682 1.682 0 0 1 1.68-1.68h5.306a1.683 1.683 0 0 1 1.681 1.68v5.306a1.683 1.683 0 0 1 -1.681 1.681zm-4.986-2h4.667v-4.667h-4.667z"/><path d="m32.32 64.328h-5.306a1.683 1.683 0 0 1 -1.681-1.681v-5.306a1.683 1.683 0 0 1 1.681-1.68h5.306a1.682 1.682 0 0 1 1.68 1.68v5.306a1.683 1.683 0 0 1 -1.68 1.681zm-4.987-2h4.667v-4.667h-4.667z"/><path d="m17.653 64.328h-5.306a1.683 1.683 0 0 1 -1.68-1.681v-5.306a1.682 1.682 0 0 1 1.68-1.68h5.306a1.682 1.682 0 0 1 1.68 1.68v5.306a1.683 1.683 0 0 1 -1.68 1.681zm-4.986-2h4.666v-4.667h-4.666z"/></svg>