<svg id="Layer_2" enable-background="new 0 0 24 24" height="512" viewBox="0 0 24 24" width="512" xmlns="http://www.w3.org/2000/svg"><g><path d="m9.5 20h-7c-1.378 0-2.5-1.122-2.5-2.5v-13c0-1.378 1.122-2.5 2.5-2.5h3c.276 0 .5.224.5.5s-.224.5-.5.5h-3c-.827 0-1.5.673-1.5 1.5v13c0 .827.673 1.5 1.5 1.5h7c.276 0 .5.224.5.5s-.224.5-.5.5z"/></g><g><path d="m17.5 9c-.276 0-.5-.224-.5-.5v-4c0-.827-.673-1.5-1.5-1.5h-3c-.276 0-.5-.224-.5-.5s.224-.5.5-.5h3c1.378 0 2.5 1.122 2.5 2.5v4c0 .276-.224.5-.5.5z"/></g><g><path d="m11.5 5h-5c-.827 0-1.5-.673-1.5-1.5v-2c0-.827.673-1.5 1.5-1.5h5c.827 0 1.5.673 1.5 1.5v2c0 .827-.673 1.5-1.5 1.5zm-5-4c-.276 0-.5.224-.5.5v2c0 .276.224.5.5.5h5c.276 0 .5-.224.5-.5v-2c0-.276-.224-.5-.5-.5z"/></g><g><path d="m21.5 24h-7c-1.378 0-2.5-1.122-2.5-2.5v-8c0-1.378 1.122-2.5 2.5-2.5h7c1.378 0 2.5 1.122 2.5 2.5v8c0 1.378-1.122 2.5-2.5 2.5zm-7-12c-.827 0-1.5.673-1.5 1.5v8c0 .827.673 1.5 1.5 1.5h7c.827 0 1.5-.673 1.5-1.5v-8c0-.827-.673-1.5-1.5-1.5z"/></g><g><path d="m20.5 15h-5c-.276 0-.5-.224-.5-.5s.224-.5.5-.5h5c.276 0 .5.224.5.5s-.224.5-.5.5z"/></g><g><path d="m20.5 18h-5c-.276 0-.5-.224-.5-.5s.224-.5.5-.5h5c.276 0 .5.224.5.5s-.224.5-.5.5z"/></g><g><path d="m20.5 21h-5c-.276 0-.5-.224-.5-.5s.224-.5.5-.5h5c.276 0 .5.224.5.5s-.224.5-.5.5z"/></g></svg>