<svg id="Capa_1" enable-background="new 0 0 512 512" height="512" viewBox="0 0 512 512" width="512" xmlns="http://www.w3.org/2000/svg"><g><path d="m233.5 512c-78.403 0-131.479-14.917-150.658-21.331-9.176-3.068-15.342-11.641-15.342-21.332v-281.351c0-9.691 6.166-18.263 15.342-21.332 6.076-2.032 15.553-4.917 28.158-7.91v-36.244c0-67.547 54.953-122.5 122.5-122.5 18.077 0 35.488 3.848 51.751 11.438 3.753 1.752 5.376 6.214 3.624 9.968-1.751 3.753-6.214 5.376-9.968 3.625-14.261-6.656-29.538-10.031-45.407-10.031-59.275 0-107.5 48.224-107.5 107.5v32.966c8.924-1.788 18.947-3.518 30-5.026v-27.94c0-42.734 34.767-77.5 77.5-77.5s77.5 34.766 77.5 77.5v27.94c11.053 1.508 21.077 3.238 30 5.026v-32.966c0-31.09-13.456-60.644-36.918-81.085-3.123-2.721-3.449-7.458-.729-10.582 2.722-3.125 7.46-3.449 10.582-.728 26.733 23.291 42.065 56.967 42.065 92.395v36.244c12.605 2.994 22.082 5.878 28.158 7.91 9.176 3.069 15.342 11.641 15.342 21.332v13.348c4.415-2.559 9.54-4.026 15-4.026 16.542 0 30 13.458 30 30v13c0 16.542-13.458 30-30 30s-30-13.458-30-30v-52.322c0-3.23-2.049-6.086-5.1-7.106-18.483-6.181-69.7-20.556-145.9-20.556s-127.417 14.375-145.9 20.556c-3.051 1.02-5.1 3.876-5.1 7.106v281.352c0 3.23 2.049 6.086 5.1 7.106 18.483 6.181 69.7 20.556 145.9 20.556s127.417-14.375 145.9-20.556c3.051-1.02 5.1-3.876 5.1-7.106v-9.056c-4.415 2.559-9.54 4.026-15 4.026-16.542 0-30-13.458-30-30v-13c0-16.542 13.458-30 30-30s30 13.458 30 30v48.03c0 9.691-6.166 18.264-15.342 21.332-19.179 6.413-72.255 21.33-150.658 21.33zm136-105.692c-8.271 0-15 6.729-15 15v13c0 8.271 6.729 15 15 15s15-6.729 15-15v-13c0-8.271-6.729-15-15-15zm30-179v13c0 8.271 6.729 15 15 15s15-6.729 15-15v-13c0-8.271-6.729-15-15-15s-15 6.729-15 15zm-166-81.985c23.108 0 44.012 1.295 62.5 3.287v-26.11c0-34.462-28.037-62.5-62.5-62.5s-62.5 28.038-62.5 62.5v26.11c18.488-1.991 39.392-3.287 62.5-3.287zm203.5 318.985c-4.143 0-7.5-3.358-7.5-7.5v-58c0-4.142 3.357-7.5 7.5-7.5s7.5 3.358 7.5 7.5v58c0 4.142-3.357 7.5-7.5 7.5zm-135 0c-4.143 0-7.5-3.358-7.5-7.5v-58c0-4.142 3.357-7.5 7.5-7.5s7.5 3.358 7.5 7.5v58c0 4.142-3.357 7.5-7.5 7.5zm-45 0c-4.143 0-7.5-3.358-7.5-7.5v-58c0-4.142 3.357-7.5 7.5-7.5s7.5 3.358 7.5 7.5v58c0 4.142-3.357 7.5-7.5 7.5zm180-97c-4.143 0-7.5-3.358-7.5-7.5v-58c0-4.142 3.357-7.5 7.5-7.5s7.5 3.358 7.5 7.5v58c0 4.142-3.357 7.5-7.5 7.5zm-45 0c-4.143 0-7.5-3.358-7.5-7.5v-58c0-4.142 3.357-7.5 7.5-7.5s7.5 3.358 7.5 7.5v58c0 4.142-3.357 7.5-7.5 7.5zm-67.5 0c-16.542 0-30-13.458-30-30v-13c0-16.542 13.458-30 30-30s30 13.458 30 30v13c0 16.542-13.458 30-30 30zm0-58c-8.271 0-15 6.729-15 15v13c0 8.271 6.729 15 15 15s15-6.729 15-15v-13c0-8.271-6.729-15-15-15zm-67.5 58c-4.143 0-7.5-3.358-7.5-7.5v-58c0-4.142 3.357-7.5 7.5-7.5s7.5 3.358 7.5 7.5v58c0 4.142-3.357 7.5-7.5 7.5zm90-97c-4.143 0-7.5-3.358-7.5-7.5v-58c0-4.142 3.357-7.5 7.5-7.5s7.5 3.358 7.5 7.5v58c0 4.142-3.357 7.5-7.5 7.5zm-67.5 0c-16.542 0-30-13.458-30-30v-13c0-16.542 13.458-30 30-30s30 13.458 30 30v13c0 16.542-13.458 30-30 30zm0-58c-8.271 0-15 6.729-15 15v13c0 8.271 6.729 15 15 15s15-6.729 15-15v-13c0-8.271-6.729-15-15-15z"/></g></svg>