<svg id="Capa_1" enable-background="new 0 0 512 512" height="512" viewBox="0 0 512 512" width="512" xmlns="http://www.w3.org/2000/svg"><g><g><circle cx="256" cy="256" fill="#fd9468" r="248.5"/><path d="m367.339 33.791c27.368 39.764 43.471 87.895 43.659 139.809.498 137.242-110.356 248.902-247.598 249.399-40.352.146-78.487-9.343-112.24-26.289 44.982 65.357 120.412 108.098 205.74 107.789 137.242-.497 248.095-112.157 247.598-249.399-.351-96.891-56.112-180.619-137.159-221.309z" fill="#fe7d43"/><circle cx="256" cy="256" fill="#ffdcce" r="216.385"/><path d="m369.279 252.385c-.773-23.382-9.06-45.674-23.964-64.468-18.584-23.437-48.345-37.362-79.61-37.249l-63.432.23c-8.723.032-15.769 7.129-15.737 15.852l.267 73.707-28.403.103c-8.723.032-15.769 7.129-15.737 15.852s7.129 15.769 15.852 15.737l28.403-.103.267 73.707c.032 8.723 7.129 15.769 15.852 15.737l63.385-.23c31.258-.113 60.91-14.245 79.317-37.803 16.019-20.5 24.379-45.741 23.54-71.072zm-48.431 51.622c-12.495 15.991-32.885 25.585-54.54 25.663l-47.591.172-.21-57.913 49.542-.18c8.723-.032 15.769-7.129 15.737-15.852s-7.129-15.769-15.852-15.737l-49.542.18-.21-57.913 47.637-.173c21.662-.079 42.126 9.374 54.743 25.287 10.668 13.453 16.596 29.319 17.145 45.886.595 17.944-5.393 35.907-16.859 50.58z" fill="#fd9468"/><path d="m396.87 91.749c9.043 25.614 14.024 53.152 14.128 81.851.498 137.242-110.356 248.902-247.598 249.399-17.429.063-34.443-1.678-50.872-5.032 38.384 34.024 88.927 54.618 144.255 54.417 119.505-.433 216.032-97.662 215.599-217.167-.236-65.423-29.483-123.957-75.512-163.468z" fill="#ffd1be"/></g><g><path d="m218.45 337.208h47.591c23.936 0 46.562-10.589 60.525-28.326h.001c12.604-16.012 19.227-35.678 18.646-55.376-.536-18.187-6.962-35.603-18.582-50.366-13.97-17.75-36.604-28.346-60.545-28.346h-47.636c-4.143 0-7.5 3.358-7.5 7.5v57.913c0 4.142 3.357 7.5 7.5 7.5h49.541c4.574 0 8.295 3.721 8.295 8.294s-3.721 8.294-8.295 8.294h-49.541c-4.143 0-7.5 3.358-7.5 7.5v57.913c0 4.142 3.358 7.5 7.5 7.5zm7.5-57.914h42.041c12.845 0 23.295-10.45 23.295-23.294s-10.45-23.294-23.295-23.294h-42.041v-42.913h40.137c19.382 0 37.608 8.458 48.758 22.624 9.618 12.219 14.935 26.58 15.375 41.53.477 16.189-5.006 32.404-15.438 45.656-11.144 14.155-29.364 22.605-48.74 22.605h-40.092z"/><path d="m202.655 368.796h63.386c33.538 0 65.444-15.094 85.347-40.375 17.18-21.821 26.2-48.757 25.4-75.847v.001c-.735-25.001-9.495-48.852-25.333-68.973-19.909-25.296-51.822-40.398-85.368-40.398h-63.432c-12.845 0-23.294 10.45-23.294 23.294v66.208h-20.904c-12.845 0-23.294 10.45-23.294 23.294s10.449 23.294 23.294 23.294h20.904v66.208c0 12.845 10.45 23.294 23.294 23.294zm-44.198-104.502c-4.573 0-8.294-3.721-8.294-8.294s3.721-8.294 8.294-8.294h28.404c4.143 0 7.5-3.358 7.5-7.5v-73.708c0-4.574 3.721-8.294 8.294-8.294h63.432c28.985 0 56.492 12.963 73.581 34.676 13.835 17.578 21.486 38.372 22.126 60.136v.001c.696 23.58-7.185 47.063-22.191 66.126-17.083 21.699-44.583 34.654-73.562 34.654h-63.386c-4.573 0-8.294-3.721-8.294-8.294v-73.708c0-4.142-3.357-7.5-7.5-7.5h-28.404z"/><path d="m437.02 74.98c-48.352-48.351-112.64-74.98-181.02-74.98s-132.668 26.629-181.02 74.98c-48.351 48.353-74.98 112.64-74.98 181.02 0 19.818 2.274 39.562 6.759 58.681.946 4.033 4.985 6.539 9.015 5.589 4.032-.946 6.535-4.982 5.589-9.015-4.222-17.998-6.363-36.588-6.363-55.255 0-64.374 25.068-124.894 70.587-170.413s106.039-70.587 170.413-70.587 124.894 25.068 170.413 70.587 70.587 106.039 70.587 170.413-25.068 124.894-70.587 170.413-106.039 70.587-170.413 70.587c-49.198 0-96.514-14.725-136.831-42.583-39.398-27.223-69.544-65.037-87.18-109.355-1.532-3.849-5.892-5.726-9.742-4.196-3.849 1.532-5.727 5.893-4.195 9.742 18.733 47.076 50.75 87.24 92.59 116.15 42.836 29.597 93.099 45.242 145.358 45.242 68.38 0 132.668-26.629 181.02-74.98 48.351-48.353 74.98-112.64 74.98-181.02s-26.629-132.667-74.98-181.02z"/><path d="m455.348 193.41c1.24 3.953 5.452 6.153 9.4 4.912 3.953-1.24 6.151-5.449 4.912-9.401-13.958-44.501-42.337-84.447-79.909-112.479-38.869-28.999-85.12-44.327-133.751-44.327-59.802 0-116.024 23.288-158.311 65.574-42.286 42.287-65.574 98.509-65.574 158.311s23.288 116.024 65.574 158.311c42.286 42.286 98.509 65.574 158.311 65.574s116.024-23.288 158.311-65.574c42.286-42.287 65.574-98.509 65.574-158.311 0-11.917-.946-23.885-2.812-35.57-.652-4.09-4.495-6.88-8.589-6.224-4.09.653-6.877 4.499-6.224 8.589 1.741 10.905 2.624 22.077 2.624 33.205 0 115.179-93.705 208.885-208.885 208.885s-208.884-93.706-208.884-208.885 93.705-208.885 208.885-208.885c45.374 0 88.522 14.298 124.781 41.35 35.064 26.16 61.545 63.43 74.567 104.945z"/></g></g></svg>