<svg id="Capa_1" enable-background="new 0 0 512 512" height="512" viewBox="0 0 512 512" width="512" xmlns="http://www.w3.org/2000/svg"><circle cx="256" cy="256" fill="#a3d4ff" r="256"/><path d="m511.967 253.373-104.887-104.887-67.854-16.391-33.583 37.692 50.172 50.172-40.849 22.501-89.056-89.056-130.21-3.847 3.489 130.57 79.869 78.973-71.383 20.19 132.19 132.189c5.337.333 10.714.521 16.135.521 141.385 0 256-114.615 256-256 0-.878-.024-1.751-.033-2.627z" fill="#65b1fc"/><path d="m360.799 214.497.001-69.655 25.156 24.947 21.125-21.302-61.282-60.773-61.279 60.773 21.125 21.301 25.156-24.948-.001 69.658c-41.917 7.151-73.93 43.734-73.93 87.659 0 49.036 39.895 88.93 88.931 88.93s88.931-39.894 88.931-88.93c-.002-43.927-32.015-80.51-73.933-87.66zm-14.999 146.589c-32.494 0-58.931-26.436-58.931-58.93 0-32.495 26.437-58.931 58.931-58.931s58.93 26.437 58.931 58.931c-.001 32.494-26.437 58.93-58.931 58.93z" fill="#2864f0"/><path d="m360.799 214.497.001-69.655 25.156 24.947 21.125-21.302-61.282-60.773-.131 155.515c.045 0 .088-.003.133-.003 32.494 0 58.93 26.437 58.931 58.931 0 32.494-26.437 58.93-58.931 58.93-.045 0-.089-.003-.133-.003v30.001c.044 0 .089.002.133.002 49.036 0 88.931-39.894 88.931-88.93-.002-43.927-32.015-80.51-73.933-87.66z" fill="#27488f"/><path d="m248.777 213.198c0-49.513-40.281-89.794-89.794-89.794s-89.794 40.281-89.794 89.794c0 44.402 32.397 81.374 74.794 88.534v47.557h-36.308v30h36.308v35.884h30v-35.883h36.309v-30h-36.309v-47.557c42.397-7.161 74.794-44.132 74.794-88.535zm-149.588 0c0-32.971 26.823-59.794 59.794-59.794s59.794 26.823 59.794 59.794-26.823 59.794-59.794 59.794-59.794-26.823-59.794-59.794z" fill="#ff468c"/><path d="m248.777 213.198c0-49.513-40.281-89.794-89.794-89.794-.151 0-.302.005-.453.006v30.006c.152-.001.301-.012.453-.012 32.971 0 59.794 26.823 59.794 59.794s-26.823 59.794-59.794 59.794c-.152 0-.301-.01-.453-.012v142.193h15.453v-35.883h36.309v-30h-36.309v-47.557c42.397-7.161 74.794-44.132 74.794-88.535z" fill="#be1964"/><circle cx="256" cy="256" fill="#fff" r="75"/><path d="m256 331c41.421 0 75-33.579 75-75s-33.579-75-75-75z" fill="#dce1eb"/><path d="m300.856 232.356-21.212-21.212-23.644 23.643-23.644-23.644-21.212 21.213 23.643 23.644-23.643 23.644 21.212 21.212 23.644-23.643 23.644 23.644 21.212-21.213-23.643-23.644z" fill="#ff468c"/><path d="m300.856 232.356-21.212-21.212-23.644 23.643v42.426l23.644 23.644 21.212-21.213-23.643-23.644z" fill="#be1964"/></svg>