<?xml version="1.0" encoding="iso-8859-1"?>
<!-- Generator: Adobe Illustrator 19.0.0, SVG Export Plug-In . SVG Version: 6.00 Build 0)  -->
<svg version="1.1" id="Capa_1" xmlns="http://www.w3.org/2000/svg" xmlns:xlink="http://www.w3.org/1999/xlink" x="0px" y="0px"
	 viewBox="0 0 512.006 512.006" style="enable-background:new 0 0 512.006 512.006;" xml:space="preserve">
<g>
	<path style="fill:#939598;" d="M307.203,59.739c0-9.429-7.637-17.067-17.067-17.067h-68.267c-9.429,0-17.067,7.637-17.067,17.067
		s7.637,17.067,17.067,17.067h68.267C299.565,76.806,307.203,69.168,307.203,59.739z"/>
	<path style="fill:#939598;" d="M307.203,93.872c0-9.429-7.637-17.067-17.067-17.067h-68.267c-9.429,0-17.067,7.637-17.067,17.067
		s7.637,17.067,17.067,17.067h68.267C299.565,110.939,307.203,103.302,307.203,93.872z"/>
	<path style="fill:#939598;" d="M204.803,128.006v17.067h102.4v-17.067c0-9.429-7.637-17.067-17.067-17.067h-68.267
		C212.449,110.939,204.803,118.585,204.803,128.006z"/>
</g>
<g>
	<path style="fill:#FFAF46;" d="M256.003,8.539c-18.85,0-34.133,15.283-34.133,34.133h68.267
		C290.136,23.822,274.853,8.539,256.003,8.539z"/>
	<path style="fill:#FFAF46;" d="M187.736,162.139v20.011c-0.145,10.197-4.873,19.789-12.877,26.121
		c-54.639,44.851-62.583,125.508-17.732,180.147c25.685,31.292,64.666,48.589,105.105,46.643
		c67.652-3.831,120.832-59.324,121.771-127.078c0.282-38.912-17.212-75.827-47.514-100.241c-7.868-6.571-12.356-16.324-12.22-26.573
		v-19.029c-0.026-9.412-7.654-17.041-17.067-17.067h-102.4C195.391,145.106,187.762,152.727,187.736,162.139z"/>
</g>
<g>
	<path style="fill:#231F20;" d="M341.857,201.094c-5.854-4.958-9.173-12.271-9.054-19.934v-19.021
		c-0.043-10.812-6.878-20.429-17.067-24.03v-10.103c-0.026-6.315-2.398-12.399-6.656-17.067c8.875-9.651,8.875-24.482,0-34.133
		c9.463-10.325,8.764-26.359-1.562-35.823c-2.739-2.509-5.99-4.386-9.532-5.495c-3.891-23.159-25.83-38.784-48.99-34.893
		c-17.877,3.004-31.881,17.015-34.893,34.893c-13.372,4.156-20.838,18.372-16.683,31.735c1.109,3.558,2.987,6.827,5.504,9.583
		c-8.875,9.651-8.875,24.482,0,34.133c-4.258,4.668-6.63,10.752-6.656,17.067v10.103c-10.189,3.601-17.024,13.218-17.067,24.03
		v20.011c-0.154,7.637-3.729,14.805-9.745,19.516c-58.291,47.838-66.756,133.871-18.927,192.154
		c25.899,31.556,64.563,49.869,105.387,49.92c2.227,0,4.471-0.051,6.716-0.162c72.064-4.284,128.674-63.334,129.903-135.518
		C392.895,266.536,374.224,227.12,341.857,201.094z M213.336,128.006c0-4.71,3.823-8.533,8.533-8.533h68.267
		c4.71,0,8.533,3.823,8.533,8.533v8.533h-85.333V128.006z M213.336,93.872c0-4.71,3.823-8.533,8.533-8.533h68.267
		c4.71,0,8.533,3.823,8.533,8.533c0,4.71-3.823,8.533-8.533,8.533h-68.267C217.159,102.406,213.336,98.591,213.336,93.872z
		 M256.003,17.072c10.846,0.017,20.514,6.844,24.141,17.067h-48.282C235.497,23.924,245.157,17.089,256.003,17.072z M221.869,51.206
		h68.267c4.71,0,8.533,3.823,8.533,8.533s-3.823,8.533-8.533,8.533h-68.267c-4.71,0-8.533-3.823-8.533-8.533
		S217.159,51.206,221.869,51.206z M261.823,426.527c-65.877,3.217-121.89-47.582-125.107-113.459
		c-1.843-37.777,14.31-74.189,43.554-98.167c9.993-7.953,15.872-19.985,16-32.751v-20.011c0-4.71,3.823-8.533,8.533-8.533h102.4
		c4.71,0,8.533,3.823,8.533,8.533v19.021c-0.179,12.826,5.47,25.045,15.36,33.22c28.322,22.75,44.672,57.225,44.373,93.551
		C374.411,371.095,324.884,422.781,261.823,426.527z"/>
	<path style="fill:#231F20;" d="M256.003,512.006c-4.71,0-8.533-3.823-8.533-8.533v-34.133c0-4.71,3.823-8.533,8.533-8.533
		c4.71,0,8.533,3.823,8.533,8.533v34.133C264.536,508.191,260.713,512.006,256.003,512.006z"/>
	<path style="fill:#231F20;" d="M157.869,485.706c-4.71-0.009-8.533-3.831-8.525-8.542c0-1.493,0.393-2.961,1.143-4.258
		l17.067-29.551c2.33-4.096,7.535-5.53,11.639-3.2c4.105,2.33,5.53,7.535,3.2,11.639c-0.017,0.034-0.034,0.068-0.06,0.094
		l-17.067,29.551C163.74,484.085,160.924,485.714,157.869,485.706z"/>
	<path style="fill:#231F20;" d="M86.044,413.872c-4.71,0-8.533-3.823-8.533-8.533c0-3.046,1.63-5.862,4.267-7.39l29.551-17.067
		c4.062-2.381,9.293-1.024,11.674,3.046c2.381,4.062,1.024,9.293-3.046,11.674c-0.034,0.017-0.068,0.034-0.102,0.06l-29.551,17.067
		C89.014,413.48,87.546,413.872,86.044,413.872z"/>
	<path style="fill:#231F20;" d="M93.869,315.739H59.736c-4.71,0-8.533-3.823-8.533-8.533s3.823-8.533,8.533-8.533h34.133
		c4.71,0,8.533,3.823,8.533,8.533S98.58,315.739,93.869,315.739z"/>
	<path style="fill:#231F20;" d="M115.578,234.672c-1.502,0-2.97-0.393-4.267-1.143l-29.551-17.067
		c-4.096-2.33-5.53-7.535-3.2-11.639c2.33-4.096,7.535-5.53,11.639-3.2c0.034,0.017,0.068,0.034,0.094,0.06l29.551,17.067
		c4.079,2.355,5.478,7.578,3.123,11.657C121.441,233.051,118.625,234.672,115.578,234.672z"/>
	<path style="fill:#231F20;" d="M396.427,234.672c-4.71,0-8.533-3.823-8.533-8.533c0-3.046,1.63-5.862,4.267-7.39l29.551-17.067
		c4.062-2.381,9.293-1.015,11.674,3.046c2.381,4.062,1.015,9.293-3.046,11.674c-0.034,0.017-0.068,0.034-0.094,0.06l-29.551,17.067
		C399.397,234.28,397.929,234.672,396.427,234.672z"/>
	<path style="fill:#231F20;" d="M452.269,315.739h-34.133c-4.71,0-8.533-3.823-8.533-8.533s3.823-8.533,8.533-8.533h34.133
		c4.71,0,8.533,3.823,8.533,8.533S456.98,315.739,452.269,315.739z"/>
	<path style="fill:#231F20;" d="M425.961,413.872c-1.502,0-2.97-0.393-4.267-1.143l-29.551-17.067
		c-4.096-2.33-5.53-7.535-3.2-11.639c2.33-4.096,7.535-5.53,11.639-3.2c0.034,0.017,0.068,0.034,0.102,0.06l29.551,17.067
		c4.079,2.355,5.478,7.578,3.123,11.657C431.824,412.251,429.008,413.872,425.961,413.872z"/>
	<path style="fill:#231F20;" d="M354.136,485.706c-3.055,0-5.871-1.621-7.398-4.267l-17.067-29.551
		c-2.381-4.062-1.024-9.293,3.046-11.674c4.062-2.381,9.293-1.024,11.674,3.046c0.017,0.034,0.043,0.068,0.06,0.102l17.067,29.551
		c2.355,4.079,0.956,9.301-3.123,11.657C357.097,485.313,355.629,485.706,354.136,485.706z"/>
</g>
<g>
</g>
<g>
</g>
<g>
</g>
<g>
</g>
<g>
</g>
<g>
</g>
<g>
</g>
<g>
</g>
<g>
</g>
<g>
</g>
<g>
</g>
<g>
</g>
<g>
</g>
<g>
</g>
<g>
</g>
</svg>
