<svg height="512" viewBox="0 0 512 512" width="512" xmlns="http://www.w3.org/2000/svg"><g><path d="m372 8h-232a28.031 28.031 0 0 0 -28 28v440a28.031 28.031 0 0 0 28 28h232a28.031 28.031 0 0 0 28-28v-440a28.031 28.031 0 0 0 -28-28zm-78.25 16-4 16h-67.5l-4-16zm90.25 452a12.01 12.01 0 0 1 -12 12h-232a12.01 12.01 0 0 1 -12-12v-440a12.01 12.01 0 0 1 12-12h61.75l6.49 25.94a8 8 0 0 0 7.76 6.06h80a8 8 0 0 0 7.76-6.06l6.49-25.94h61.75a12.01 12.01 0 0 1 12 12z"/><path d="m288 464h-64a8 8 0 0 0 0 16h64a8 8 0 0 0 0-16z"/><path d="m344 160h-104a8 8 0 0 0 0 16h48v40a8 8 0 0 0 8 8h48a8 8 0 0 0 8-8v-48a8 8 0 0 0 -8-8zm-8 48h-32v-32h32z"/><path d="m224 344v-48a8 8 0 0 0 -8-8h-48a8 8 0 0 0 -8 8v48a8 8 0 0 0 8 8h48a8 8 0 0 0 8-8zm-16-8h-32v-32h32z"/><path d="m344 288h-48a8 8 0 0 0 -8 8v40h-48a8 8 0 0 0 0 16h104a8 8 0 0 0 8-8v-48a8 8 0 0 0 -8-8zm-8 48h-32v-32h32z"/><path d="m272 312h-32a8 8 0 0 0 0 16h32a8 8 0 0 0 0-16z"/><path d="m344 232a8 8 0 0 0 -8 8v32a8 8 0 0 0 16 0v-32a8 8 0 0 0 -8-8z"/><path d="m328 272v-32a8 8 0 0 0 -16 0v32a8 8 0 0 0 16 0z"/><path d="m272 232h-96v-8h40a8 8 0 0 0 8-8v-48a8 8 0 0 0 -8-8h-48a8 8 0 0 0 -8 8v104a8 8 0 0 0 16 0v-24h56v16h-24a8 8 0 0 0 0 16h64a8 8 0 0 0 8-8v-32a8 8 0 0 0 -8-8zm-96-56h32v32h-32zm88 88h-16v-16h16z"/><path d="m312 184h16v16h-16z"/><path d="m184 312h16v16h-16z"/><path d="m264 216v-24a8 8 0 0 0 -16 0v24a8 8 0 0 0 16 0z"/><path d="m296 264a8 8 0 0 0 8-8v-16a8 8 0 0 0 -16 0v16a8 8 0 0 0 8 8z"/></g></svg>