<svg height="480pt" viewBox="-24 0 480 480" width="480pt" xmlns="http://www.w3.org/2000/svg"><path d="m429.648438 218.34375-32-32-11.3125 11.3125 18.34375 18.34375h-116.679688v16h116.679688l-18.335938 18.34375 11.3125 11.3125 32-32c3.121094-3.125 3.117188-8.191406-.007812-11.3125zm0 0"/><path d="m381.664062 306.34375-11.328124 11.3125 10.34375 10.34375h-60.679688v16h60.679688l-10.34375 10.34375 11.328124 11.3125 24-24c3.121094-3.125 3.121094-8.1875 0-11.3125zm0 0"/><path d="m370.34375 130.34375 11.3125 11.3125 24-24c3.121094-3.125 3.121094-8.1875 0-11.3125l-24-24-11.3125 11.3125 10.34375 10.34375h-60.6875v16h60.6875zm0 0"/><path d="m176 216h-16v-8h-16v8h-16c-4.417969 0-8 3.582031-8 8v32c0 4.417969 3.582031 8 8 8h40v16h-32v-7.664062h-16v15.664062c0 4.417969 3.582031 8 8 8h16.167969v8h16v-8h15.832031c4.417969 0 8-3.582031 8-8v-32c0-4.417969-3.582031-8-8-8h-40v-16h32v8.167969h16v-16.167969c0-4.417969-3.582031-8-8-8zm0 0"/><path d="m183.257812 175.808594 8.4375-29.601563c.773438-2.6875.085938-5.589843-1.816406-7.644531-1.898437-2.054688-4.738281-2.964844-7.480468-2.402344l-37.917969 7.574219-21.984375-7.328125c-2.816406-.9375-5.917969-.242188-8.0625 1.8125-2.144532 2.050781-2.976563 5.121094-2.160156 7.972656l8.4375 29.601563c-33.511719 17.007812-56.710938 58.878906-56.710938 96.207031 0 44.40625 33.71875 72 88 72s88-27.59375 88-72c0-37.328125-23.199219-79.199219-56.742188-96.191406zm-51.417968-19.433594 9.601562 3.199219c1.320313.4375 2.730469.523437 4.09375.25l27.144532-5.425781-4.472657 15.714843c-10.640625-2.839843-21.839843-2.839843-32.480469 0zm20.160156 171.625c-16.886719 0-72-4.039062-72-56 0-39.855469 32.121094-88 72-88s72 48.144531 72 88c0 52-55.113281 56-72 56zm0 0"/><path d="m64 336h16v16h-16zm0 0"/><path d="m64 128h16v16h-16zm0 0"/><path d="m224 336h16v16h-16zm0 0"/><path d="m224 128h16v16h-16zm0 0"/><path d="m288 408h-272v-344h91.054688l5.785156 11.574219c1.355468 2.714843 4.128906 4.425781 7.160156 4.425781h64c3.03125 0 5.804688-1.710938 7.160156-4.425781l5.785156-11.574219h91.054688v136h16v-160c-.289062-21.972656-18.027344-39.710938-40-40h-224c-21.972656.289062-39.710938 18.027344-40 40v400c.289062 21.972656 18.027344 39.710938 40 40h224c21.972656-.289062 39.710938-18.027344 40-40v-192h-16zm-248-392h224c13.113281.332031 23.667969 10.886719 24 24v8h-96c-3.03125 0-5.804688 1.710938-7.160156 4.425781l-5.785156 11.574219h-54.109376l-5.746093-11.574219c-1.359375-2.726562-4.152344-4.441406-7.199219-4.425781h-96v-8c.332031-13.113281 10.886719-23.667969 24-24zm224 448h-224c-13.113281-.332031-23.667969-10.886719-24-24v-16h272v16c-.332031 13.113281-10.886719 23.667969-24 24zm0 0"/><path d="m48 24h16v16h-16zm0 0"/><path d="m24 368v24c0 4.417969 3.582031 8 8 8h24v-16h-16v-16zm0 0"/><path d="m56 72h-24c-4.417969 0-8 3.582031-8 8v24h16v-16h16zm0 0"/><path d="m264 384h-16v16h24c4.417969 0 8-3.582031 8-8v-24h-16zm0 0"/><path d="m280 80c0-4.417969-3.582031-8-8-8h-24v16h16v16h16zm0 0"/></svg>