<svg height="512" viewBox="0 0 512 512" width="512" xmlns="http://www.w3.org/2000/svg"><g id="Outline"><path d="m256 288a32 32 0 1 1 32-32 32.036 32.036 0 0 1 -32 32zm0-48a16 16 0 1 0 16 16 16.019 16.019 0 0 0 -16-16z"/><path d="m256 496a31.9 31.9 0 0 1 -22.627-9.357l-71.03-71.03a30.627 30.627 0 1 1 43.314-43.313l18.343 18.343v-54.628a32 32 0 0 1 64 0v54.628l18.343-18.343a30.627 30.627 0 1 1 43.314 43.313l-71.03 71.03a31.9 31.9 0 0 1 -22.627 9.357zm-72-116.671a14.628 14.628 0 0 0 -10.343 24.971l71.029 71.029a16.019 16.019 0 0 0 22.628 0l71.029-71.029a14.628 14.628 0 0 0 -20.686-20.687l-32 32a8 8 0 0 1 -13.657-5.656v-73.942a16 16 0 0 0 -32 0v73.942a8 8 0 0 1 -13.657 5.656l-32-32a14.535 14.535 0 0 0 -10.343-4.284z"/><path d="m256 207.985a32.036 32.036 0 0 1 -32-32v-54.627l-18.343 18.342a30.664 30.664 0 0 1 -43.314 0 30.662 30.662 0 0 1 0-43.313l71.03-71.03a32.034 32.034 0 0 1 45.254 0l71.03 71.03a30.627 30.627 0 1 1 -43.314 43.313l-18.343-18.342v54.627a32.036 32.036 0 0 1 -32 32zm-24-113.941a8 8 0 0 1 8 8v73.941a16 16 0 0 0 32 0v-73.941a8 8 0 0 1 13.657-5.656l32 32a14.628 14.628 0 0 0 20.686-20.688l-71.029-71.03a16.019 16.019 0 0 0 -22.628 0l-71.029 71.03a14.645 14.645 0 0 0 0 20.687 14.644 14.644 0 0 0 20.686 0l32-32a8 8 0 0 1 5.657-2.343z"/></g></svg>