<svg xmlns="http://www.w3.org/2000/svg" viewBox="0 0 464.54 451.34"><defs><style>.cls-1{fill:#2d2d2f;}.cls-1,.cls-5,.cls-6{stroke:#222221;stroke-width:16px;}.cls-1,.cls-4,.cls-5,.cls-6{stroke-miterlimit:10;}.cls-2{fill:#da8c6c;}.cls-3{fill:#f2d8d0;}.cls-4,.cls-6{fill:none;}.cls-4{stroke:#da8c6c;stroke-width:10px;}.cls-5{fill:#58575d;}</style></defs><g id="decoracion"><rect class="cls-1" x="222.26" y="145.64" width="296.05" height="300.69" rx="23" transform="translate(-264.01 115.2) rotate(-26.9)"/><g id="doge"><circle class="cls-2" cx="247.61" cy="126.61" r="85.04"/><circle class="cls-3" cx="247.61" cy="126.61" r="75.59"/><path class="cls-4" d="M400.48,180.2l-.15,61.63a1.19,1.19,0,0,0,1.19,1.19l23.05-.15h.15a32.14,32.14,0,0,0-2.11-64h-.09l-20.86.15A1.18,1.18,0,0,0,400.48,180.2Z" transform="translate(-170.17 -84.33)"/><rect class="cls-4" x="212.41" y="126.35" width="41.4" height="0.44" rx="0.15"/><circle class="cls-2" cx="378.45" cy="85.04" r="85.04"/><circle class="cls-3" cx="378.45" cy="85.04" r="75.59"/><path class="cls-4" d="M531.32,138.63q-.08,30.81-.16,61.62a1.2,1.2,0,0,0,1.2,1.2l23-.16h.15a32.13,32.13,0,0,0-2.11-64h-.08l-20.86.16A1.18,1.18,0,0,0,531.32,138.63Z" transform="translate(-170.17 -84.33)"/><rect class="cls-4" x="343.25" y="84.78" width="41.4" height="0.44" rx="0.15"/></g><rect class="cls-5" x="8.54" y="138.34" width="448" height="305" rx="23"/><rect class="cls-1" x="8.54" y="310.84" width="448" height="49"/><rect class="cls-6" x="302.5" y="385.2" width="117.36" height="2.16" rx="1.08"/><rect class="cls-6" x="356.17" y="412.72" width="63.69" height="2.16" rx="1.08"/></g></svg>